<svg id="Capa_1" enable-background="new 0 0 511.998 511.998" height="512" viewBox="0 0 511.998 511.998" width="512" xmlns="http://www.w3.org/2000/svg"><g><path d="m19.339 251.703c3.36 3.356 8.826 3.356 12.187-.003l6.443-6.443v243.062c0 5.236 4.26 9.497 9.497 9.497 265.694 0 248.079.124 249.471-.224h187.656c5.236 0 9.496-4.26 9.496-9.497v-237.827l15.383-15.383c3.373-3.373 3.364-8.829 0-12.189l-134.557-134.558v-30.717h1.572c4.872 0 8.835-3.963 8.835-8.835v-25.59c0-4.872-3.963-8.835-8.835-8.835h-105.861c-4.872 0-8.835 3.963-8.835 8.835v25.59c0 4.872 3.963 8.835 8.835 8.835h1.572v11.019c-107.263 0-100.949-.003-101.196.006-8.868.072-17.714 3.483-24.465 10.234l-61.782 61.782c-2.929 2.929-2.929 7.678 0 10.606 2.929 2.929 7.678 2.929 10.606 0l61.782-61.782c3.857-3.857 8.91-5.806 13.976-5.848.137.003.153.002.505.002 5.01.083 9.995 2.032 13.81 5.846l139.505 139.504-7.791 7.792-139.507-139.507c-3.504-3.5-9.204-3.5-12.706.002l-139.504 139.505-7.792-7.792 52.404-52.404c2.929-2.929 2.929-7.678 0-10.606-2.929-2.929-7.678-2.929-10.606 0l-56.916 56.916c-3.361 3.361-3.361 8.829 0 12.189zm33.63 213.081h66.153v18.032h-66.153zm264.179-210.559h161.941v195.56h-174.48v-204.528l6.442 6.442c1.63 1.629 3.794 2.526 6.097 2.526zm-27.539 228.591h-66.153v-18.032h66.153zm189.48-.224h-174.48v-17.809h174.479v17.809zm-108.767-440.171h-29.201v-13.26h29.201zm-93.531-13.26h49.33v13.26h-49.33zm49.33 28.26v17.458c0 4.142 3.357 7.5 7.5 7.5s7.5-3.358 7.5-7.5v-17.458h18.794v77.079h-18.794v-24.621c0-4.142-3.357-7.5-7.5-7.5s-7.5 3.358-7.5 7.5v24.621h-3.385l-35.538-35.54v-41.54h38.923zm-125.319 26.018h71.396v18.156c0 2.311.901 4.482 2.53 6.108l39.598 39.599c1.407 1.407 3.314 2.197 5.304 2.197h46.646c4.764 0 8.64-3.875 8.64-8.639v-31.509l119.437 119.439-10.434 10.434h-148.201l4.343-4.342c3.354-3.359 3.354-8.825-.003-12.187zm-29.513 28.498 118.32 118.321v219.526h-66.153v-135.217c0-4.986-4.057-9.042-9.043-9.042h-86.248c-4.986 0-9.043 4.057-9.043 9.042v53.5c0 4.142 3.358 7.5 7.5 7.5s7.5-3.358 7.5-7.5v-47.543h74.334v62.069c-13.808-4.373-27.942 5.993-27.942 20.474 0 14.484 14.136 24.847 27.942 20.475v59.274h-74.334v-79.749c0-4.142-3.358-7.5-7.5-7.5s-7.5 3.358-7.5 7.5v46.716h-66.153v-219.526zm37.167 291.13c0 3.568-2.903 6.471-6.471 6.471s-6.471-2.903-6.471-6.471 2.903-6.471 6.471-6.471 6.471 2.904 6.471 6.471z"/><path d="m356.041 396.597h71.616c5.668 0 10.279-4.611 10.279-10.279v-71.617c0-5.668-4.611-10.279-10.279-10.279h-71.616c-5.668 0-10.279 4.611-10.279 10.279v71.617c0 5.668 4.611 10.279 10.279 10.279zm4.721-38.588h23.587v23.587h-23.587zm38.587 23.588v-23.587h23.588v23.587zm23.588-38.588h-23.588v-23.587h23.588zm-38.588-23.587v23.587h-23.587v-23.587z"/><path d="m102.14 277.225h14.685c11.189 0 20.293-9.104 20.293-20.293 0-4.846-1.707-9.3-4.552-12.793 2.844-3.493 4.552-7.948 4.552-12.793 0-11.189-9.104-20.293-20.293-20.293h-14.685c-4.142 0-7.5 3.358-7.5 7.5v51.172c0 4.142 3.358 7.5 7.5 7.5zm14.684-15h-7.185v-10.586h7.185c2.918 0 5.293 2.375 5.293 5.293s-2.374 5.293-5.293 5.293zm-7.184-36.172h7.185c2.918 0 5.293 2.375 5.293 5.293s-2.375 5.293-5.293 5.293h-7.185z"/><path d="m208.493 277.225h14.684c11.189 0 20.293-9.104 20.293-20.293 0-4.846-1.707-9.3-4.552-12.793 2.844-3.493 4.552-7.948 4.552-12.793 0-11.189-9.104-20.293-20.293-20.293h-14.684c-4.142 0-7.5 3.358-7.5 7.5v51.172c0 4.142 3.358 7.5 7.5 7.5zm14.684-15h-7.184v-10.586h7.184c2.918 0 5.293 2.375 5.293 5.293s-2.375 5.293-5.293 5.293zm-7.184-36.172h7.184c2.918 0 5.293 2.375 5.293 5.293s-2.375 5.293-5.293 5.293h-7.184z"/><path d="m155.317 277.225c4.142 0 7.5-3.358 7.5-7.5v-18.086h6.238c3.44 0 6.239 2.798 6.239 6.238v11.848c0 4.142 3.358 7.5 7.5 7.5s7.5-3.358 7.5-7.5v-11.848c0-11.711-9.528-21.238-21.239-21.238h-13.738c-4.142 0-7.5 3.358-7.5 7.5v25.586c0 4.142 3.357 7.5 7.5 7.5z"/></g></svg>